HIERARCHY
ROOT root
{
	OFFSET 0.000000 0.000000 0.000000
	CHANNELS 6 Xposition Yposition Zposition Zrotation Yrotation Xrotation
	JOINT lhip
	{
		OFFSET 0.058581 -0.082280 -0.017664
		CHANNELS 3 Zrotation Yrotation Xrotation
		JOINT lknee
		{
			OFFSET 0.043451 -0.386469 0.008037
			CHANNELS 3 Zrotation Yrotation Xrotation
			JOINT lankle
			{
				OFFSET -0.014790 -0.426874 -0.037428
				CHANNELS 3 Zrotation Yrotation Xrotation
				JOINT ltoe
				{
					OFFSET 0.041054 -0.060286 0.122042
					CHANNELS 3 Zrotation Yrotation Xrotation
					End Site
					{
						OFFSET 0.000000 0.000000 0.000000
					}
				}
			}
		}
	}
	JOINT rhip
	{
		OFFSET -0.060310 -0.090513 -0.013543
		CHANNELS 3 Zrotation Yrotation Xrotation
		JOINT rknee
		{
			OFFSET -0.043257 -0.383688 -0.004843
			CHANNELS 3 Zrotation Yrotation Xrotation
			JOINT rankle
			{
				OFFSET 0.019056 -0.420046 -0.034562
				CHANNELS 3 Zrotation Yrotation Xrotation
				JOINT rtoe
				{
					OFFSET -0.034840 -0.062106 0.130323
					CHANNELS 3 Zrotation Yrotation Xrotation
					End Site
					{
						OFFSET 0.000000 0.000000 0.000000
					}
				}
			}
		}
	}
	JOINT lowerback
	{
		OFFSET 0.004439 0.124404 -0.038385
		CHANNELS 3 Zrotation Yrotation Xrotation
		JOINT upperback
		{
			OFFSET 0.004488 0.137956 0.026820
			CHANNELS 3 Zrotation Yrotation Xrotation
			JOINT chest
			{
				OFFSET -0.002265 0.056032 0.002855
				CHANNELS 3 Zrotation Yrotation Xrotation
				JOINT lowerneck
				{
					OFFSET -0.013390 0.211636 -0.033468
					CHANNELS 3 Zrotation Yrotation Xrotation
					JOINT upperneck
					{
						OFFSET 0.010113 0.088937 0.050410
						CHANNELS 3 Zrotation Yrotation Xrotation
						End Site
						{
							OFFSET 0.000000 0.000000 0.000000
						}
					}
				}
				JOINT lclavicle
				{
					OFFSET 0.071702 0.114000 -0.018898
					CHANNELS 3 Zrotation Yrotation Xrotation
					JOINT lshoulder
					{
						OFFSET 0.122921 0.045205 -0.019046
						CHANNELS 3 Zrotation Yrotation Xrotation
						JOINT lelbow
						{
							OFFSET 0.255332 -0.015649 -0.022946
							CHANNELS 3 Zrotation Yrotation Xrotation
							JOINT lwrist
							{
								OFFSET 0.265709 0.012698 -0.007375
								CHANNELS 3 Zrotation Yrotation Xrotation
								End Site
								{
									OFFSET 0.000000 0.000000 0.000000
								}
							}
						}
					}
				}
				JOINT rclavicle
				{
					OFFSET -0.082954 0.112472 -0.023707
					CHANNELS 3 Zrotation Yrotation Xrotation
					JOINT rshoulder
					{
						OFFSET -0.113228 0.046853 -0.008472
						CHANNELS 3 Zrotation Yrotation Xrotation
						JOINT relbow
						{
							OFFSET -0.260127 -0.014369 -0.031269
							CHANNELS 3 Zrotation Yrotation Xrotation
							JOINT rwrist
							{
								OFFSET -0.269108 0.006794 -0.006027
								CHANNELS 3 Zrotation Yrotation Xrotation
								End Site
								{
									OFFSET 0.000000 0.000000 0.000000
								}
							}
						}
					}
				}
			}
		}
	}
}
MOTION
Frames: 12
Frame Time: 0.033333
0.370632 0.160741 0.989222 85.668329 0.614482 91.461297 7.199639 6.101057 5.259456 -4.302998 0.480001 -6.476694 0.760208 9.239616 -3.096236 0.000000 -0.000000 0.000000 -5.761069 -3.754179 0.752119 1.798218 -0.475726 0.150034 4.745269 -4.301852 -5.748176 0.000000 -0.000000 0.000000 -4.487544 4.063188 -6.006048 2.264818 -1.009502 10.356339 0.049979 1.332947 -4.360829 4.760067 3.977816 8.141075 3.977059 0.135632 -0.259581 -28.333268 -0.154218 -0.745846 -53.578859 -4.783351 18.871659 1.844702 -20.240808 11.339242 -6.864870 -12.129726 11.489795 30.179869 2.222599 5.717408 55.168333 3.324470 14.766303 -9.491783 24.707641 -2.642067 1.634210 10.761515 1.291596 
0.370634 0.160672 0.989090 85.693584 0.620474 91.432170 7.205041 6.045172 5.299643 -4.297664 0.496703 -6.495677 0.755106 9.243503 -3.100733 0.000000 -0.000000 0.000000 -5.747615 -3.715067 0.814362 1.786745 -0.416459 0.106152 4.721903 -4.400110 -5.742242 0.000000 -0.000000 0.000000 -4.445299 3.972928 -5.834086 2.160690 -0.930761 9.953876 0.137812 1.402425 -4.034524 4.774291 3.968647 7.666827 3.930674 0.055316 0.313914 -28.140082 -0.225736 -0.684718 -53.825558 -4.903373 18.646223 1.852043 -20.200462 11.651068 -7.013599 -12.128509 11.580182 29.940468 2.160228 5.805020 55.501346 3.498596 14.752040 -9.723845 24.694645 -2.450015 1.512215 10.787296 1.242821 
0.370580 0.160709 0.989136 85.724449 0.626617 91.451942 7.184719 5.995359 5.266526 -4.274703 0.493739 -6.488371 0.763168 9.230622 -3.090470 0.000000 -0.000000 0.000000 -5.739906 -3.683612 0.804043 1.782705 -0.429682 0.087893 4.739136 -4.436190 -5.728811 0.000000 -0.000000 0.000000 -4.392865 3.952267 -5.811700 2.095894 -0.898128 9.843783 0.136663 1.384434 -3.974586 4.817756 3.972554 7.570266 3.925933 0.026935 0.442936 -28.037836 -0.287988 -0.634081 -54.034933 -4.984895 18.615726 1.985821 -20.026401 11.649601 -7.091695 -12.188944 11.570920 29.738808 2.317973 5.922426 55.826250 3.465521 14.866445 -9.884821 24.667560 -2.604385 1.336539 10.827102 1.041058 
0.370629 0.160639 0.989156 85.703807 0.662864 91.426581 7.236828 5.997287 5.311621 -4.288744 0.500700 -6.502805 0.797267 9.263488 -3.124417 0.000000 -0.000000 0.000000 -5.691524 -3.669339 0.833932 1.775612 -0.419379 0.079749 4.733757 -4.448623 -5.720544 0.000000 -0.000000 0.000000 -4.328024 3.938909 -5.676195 2.040103 -0.862207 9.602029 0.149184 1.386784 -3.869869 4.808196 3.907579 7.590202 3.935779 0.085229 0.462187 -27.999896 -0.277850 -0.596560 -54.064934 -4.969237 18.664730 2.035013 -20.106912 11.684476 -7.337464 -12.178767 11.262183 29.475251 2.347460 5.889453 56.145873 3.311466 15.086259 -9.697484 24.759661 -2.375534 2.544501 10.319482 0.032215 
0.370649 0.160637 0.989156 85.703573 0.664027 91.425945 7.238126 5.997835 5.312954 -4.288167 0.501662 -6.502589 0.797711 9.264014 -3.123782 0.000000 -0.000000 0.000000 -5.690347 -3.668950 0.836323 1.774804 -0.418053 0.078209 4.733648 -4.448126 -5.719602 0.000000 -0.000000 0.000000 -4.328115 3.938407 -5.674673 2.038518 -0.862551 9.598013 0.148610 1.387605 -3.869052 4.807793 3.907300 7.588685 3.936162 0.084871 0.462348 -28.000634 -0.279586 -0.597499 -54.065484 -4.970465 18.664682 2.035505 -20.107999 11.683883 -7.343526 -12.179829 11.259604 29.472693 2.347726 5.888057 56.149513 3.309082 15.089138 -9.696263 24.762514 -2.369680 2.572114 10.308326 0.021664 
0.370703 0.160512 0.989137 85.716264 0.659776 91.452230 7.242548 6.017334 5.274744 -4.296128 0.520559 -6.478918 0.773678 9.236281 -3.117564 0.000000 -0.000000 0.000000 -5.685844 -3.668940 0.823259 1.775600 -0.430299 0.064781 4.745706 -4.430035 -5.735639 0.000000 -0.000000 0.000000 -4.381109 3.944980 -5.758635 2.062145 -0.887721 9.673905 0.151764 1.386516 -3.891103 4.839222 3.957550 7.514739 3.949000 0.004090 0.552828 -27.999037 -0.326845 -0.570772 -54.094331 -4.998935 18.610797 2.079504 -20.057622 11.693419 -7.264406 -12.250731 11.489430 29.623147 2.344552 5.921594 56.002081 3.420607 14.931515 -9.909734 24.740637 -2.445356 2.027121 10.561657 0.718420 
0.370704 0.160404 0.989133 85.725517 0.657131 91.458506 7.250757 6.014882 5.265477 -4.301247 0.485335 -6.456327 0.762482 9.210780 -3.160185 0.000000 -0.000000 0.000000 -5.671423 -3.657570 0.831382 1.758670 -0.434043 0.045707 4.739380 -4.448644 -5.731063 0.000000 -0.000000 0.000000 -4.419674 3.950364 -5.758724 2.065203 -0.883435 9.645941 0.162564 1.378610 -3.880227 4.851160 3.951852 7.461587 3.956302 0.011085 0.608004 -27.973821 -0.341149 -0.552263 -54.143933 -5.024435 18.595857 2.082036 -19.994952 11.689786 -6.989109 -12.250756 11.491457 29.656873 2.335540 5.949848 56.023210 3.465170 14.882057 -9.955376 24.727994 -2.481036 1.375537 10.809851 0.940155 
0.370739 0.160504 0.989134 85.750517 0.633139 91.450724 7.221375 5.999021 5.278644 -4.306741 0.495221 -6.469786 0.785649 9.223086 -3.124168 0.000000 -0.000000 0.000000 -5.709888 -3.655936 0.857289 1.773488 -0.456377 0.028581 4.731788 -4.446115 -5.720486 0.000000 -0.000000 0.000000 -4.424936 3.932751 -5.748292 2.040467 -0.893074 9.647002 0.152714 1.377895 -3.876441 4.848238 3.983291 7.418110 3.950039 -0.007048 0.604766 -27.959046 -0.352378 -0.518537 -54.172959 -5.050129 18.546172 2.058483 -19.994273 11.660742 -6.933654 -12.201185 11.427468 29.617615 2.351687 5.975839 56.115072 3.482471 14.890527 -10.006683 24.750161 -2.488193 1.317543 10.778177 0.862331 
0.370714 0.160512 0.989129 85.754681 0.632878 91.466430 7.216434 5.980041 5.264954 -4.309597 0.501168 -6.483460 0.799707 9.207809 -3.132832 0.000000 -0.000000 0.000000 -5.705834 -3.642039 0.835350 1.772718 -0.468696 0.039982 4.729710 -4.447674 -5.735801 0.000000 -0.000000 0.000000 -4.421442 3.929416 -5.773444 2.028280 -0.899164 9.680671 0.146093 1.377077 -3.877926 4.879192 4.047284 7.385616 3.966439 -0.007666 0.655152 -27.951252 -0.361523 -0.502400 -54.190757 -5.067241 18.526928 2.092154 -19.996930 11.671055 -7.182087 -12.227269 11.466845 29.588785 2.378944 5.999515 56.182778 3.500283 14.895859 -10.080111 24.766092 -2.516811 1.422741 10.766824 0.815911 
0.370645 0.160392 0.989142 85.743946 0.665590 91.491785 7.264946 5.965907 5.227157 -4.325548 0.507207 -6.455820 0.822368 9.220438 -3.123524 0.000000 -0.000000 0.000000 -5.654006 -3.632643 0.805796 1.765620 -0.463743 0.035217 4.719654 -4.459629 -5.708784 0.000000 -0.000000 0.000000 -4.429626 3.947610 -5.759556 2.046519 -0.899818 9.618540 0.171962 1.384894 -3.857389 4.867669 4.028260 7.394237 3.969389 -0.016464 0.646053 -27.965749 -0.391495 -0.470493 -54.202621 -5.067430 18.532245 2.107647 -19.987756 11.652547 -7.169187 -12.233702 11.442881 29.565264 2.413937 6.022319 56.208811 3.472671 14.885040 -10.097774 24.768775 -2.517123 1.406608 10.750499 0.746820 
0.370661 0.160365 0.989137 85.741365 0.667895 91.499760 7.259873 5.969516 5.214493 -4.310375 0.510468 -6.447089 0.841927 9.229132 -3.142741 0.000000 -0.000000 0.000000 -5.642689 -3.627623 0.799622 1.752266 -0.459165 0.033438 4.730021 -4.461587 -5.721229 0.000000 -0.000000 0.000000 -4.418596 3.942003 -5.729116 2.025417 -0.903084 9.541164 0.168945 1.397524 -3.818135 4.877096 4.034233 7.424179 3.981057 0.028722 0.625681 -27.926292 -0.394446 -0.473733 -54.229753 -5.061749 18.541503 2.099599 -19.963527 11.660817 -7.210942 -12.236040 11.379350 29.497263 2.413906 6.046780 56.305644 3.466500 14.913482 -10.094753 24.797124 -2.507253 1.542390 10.746656 0.577675 
0.370757 0.160322 0.989149 85.730959 0.665927 91.503042 7.262287 5.966599 5.233449 -4.325044 0.582143 -6.449111 0.859991 9.177342 -3.146593 0.000000 -0.000000 0.000000 -5.640190 -3.577822 0.826563 1.736512 -0.562714 0.020833 4.745071 -4.410183 -5.685599 0.000000 -0.000000 0.000000 -4.558004 3.975949 -5.696830 2.032001 -0.916416 9.570591 0.272698 1.518725 -3.934876 4.990716 4.032751 7.468919 4.013863 -0.139101 0.605214 -27.842117 -0.559370 -0.251290 -54.382847 -5.049296 18.496265 2.273626 -20.008706 11.432159 -7.394586 -12.288570 11.362322 29.497262 2.956306 6.409926 56.519101 3.023157 15.040202 -10.712912 24.928132 -3.139593 1.951928 10.750163 -0.192679 
